<?xml version="1.0" encoding="utf-8"?>
<!-- Generator: Adobe Illustrator 22.1.0, SVG Export Plug-In . SVG Version: 6.00 Build 0)  -->
<svg version="1.1" id="Layer_1" xmlns="http://www.w3.org/2000/svg" xmlns:xlink="http://www.w3.org/1999/xlink" x="0px" y="0px"
	 viewBox="0 0 539 539" style="enable-background:new 0 0 539 539;" xml:space="preserve">
<style type="text/css">
	.st0{fill:#FFFFFF;}
</style>
<title>b3 - fyrkant</title>
<g>
	<rect id="Spacer-" width="539" height="539"/>
	<g id="B3-Vit">
		<path id="Combined-Shape-Copy-99" class="st0" d="M428.4,307.5c0,42.6-34.3,77.1-76.5,77.1s-76.5-26.8-76.5-69.4l38.3-7.7
			c-0.3,21.1,16.5,38.5,37.6,38.9c21.1,0.3,38.5-16.5,38.9-37.6c0-0.4,0-0.8,0-1.2c0-21.3-13.3-42.4-34.4-42.4v-38.5
			C398,226.6,428.4,264.9,428.4,307.5z M354.2,227h1.5v38.5h-16.8v-10C338.9,247,354.1,235.5,354.2,227z"/>
		<path id="Combined-Shape-Copy-100" class="st0" d="M110,307.4V169c8.5,0,20-15,28.5-15h10v86.9c11.7-6.8,25-10.3,38.6-10.3
			c42.6,0,77.1,34.3,77.1,76.7S229.7,384,187.1,384S110,349.7,110,307.4z M148.6,281.4v24.9c0,21.3,17.3,38.5,38.6,38.5h6.8
			c17.5,0,31.7-14.2,31.7-31.7c0-24.9-20.2-45.1-45.1-45.1c-11.2,0-22,4.2-30.3,11.7l0,0C149.7,280.3,149.1,280.8,148.6,281.4
			L148.6,281.4z"/>
		<path id="Combined-Shape-Copy-101" class="st0" d="M351.4,192.4L351.4,192.4c-21.2,0.1-38.4,17.4-38.3,38.6c0,0,0,0,0,0l0,0
			l-38.3-7.7c0-42.5,34.3-69.3,76.6-69.3v0.1h16.9v9.9c0,8.4-15.4,20.1-15.4,28.4L351.4,192.4z"/>
	</g>
</g>
</svg>
