<?xml version="1.0" standalone="no"?><!-- Generator: Adobe Fireworks CS6, Export SVG Extension by Aaron Beall (http://fireworks.abeall.com) . Version: 0.6.1  --><!DOCTYPE svg PUBLIC "-//W3C//DTD SVG 1.1//EN" "http://www.w3.org/Graphics/SVG/1.1/DTD/svg11.dtd"><svg id="Untitled-Sida%201" viewBox="0 0 115 115" style="background-color:#ffffff00" version="1.1"	xmlns="http://www.w3.org/2000/svg" xmlns:xlink="http://www.w3.org/1999/xlink" xml:space="preserve"	x="0px" y="0px" width="115px" height="115px">	<g id="Layer%201">		<g>			<g>				<path d="M 114.7004 115.1059 L -0.2996 115.1059 L -0.2996 0.1059 L 114.7004 0.1059 L 114.7004 115.1059 Z" fill="#772432"/>				<path d="M 102.2158 76.1396 L 102.2158 78.7106 L 101.4083 78.7106 L 101.4083 76.1396 L 100.5744 76.1396 L 100.5744 75.51 L 103.0453 75.51 L 103.0453 76.1396 L 102.2158 76.1396 Z" fill="#ffffff"/>				<path d="M 106.1648 78.7106 C 106.1648 78.7106 106.1648 76.9424 106.1832 76.317 L 105.5166 78.7106 L 104.8226 78.7106 L 104.1609 76.317 C 104.1744 76.7657 104.1786 78.7106 104.1786 78.7106 L 103.3989 78.7106 L 103.3989 75.51 L 104.5687 75.51 L 105.1716 77.7494 L 105.7656 75.51 L 106.9356 75.51 L 106.9356 78.7106 L 106.1648 78.7106 Z" fill="#ffffff"/>				<path d="M 68.9745 78.7106 L 79.7665 78.7106 L 79.7665 37.8823 L 68.9745 37.8823 L 68.9745 78.7106 Z" fill="#ffffff"/>				<path d="M 104.8317 37.8823 L 82.2837 37.8823 L 82.2837 45.976 L 88.3441 45.976 L 88.3441 78.7106 L 98.7758 78.7106 L 98.7758 45.976 L 104.8317 45.976 L 104.8317 37.8823 Z" fill="#ffffff"/>				<path d="M 58.1058 57.1273 L 58.1058 56.9473 C 62.5349 56.5047 63.7589 55.0781 63.7589 50.9609 L 63.7589 44.1775 C 63.7589 37.9072 61.1126 36.9832 51.7759 36.9832 C 42.901 36.9832 39.9578 38.3861 39.9578 44.1775 L 39.9578 51.7317 L 50.0439 51.7317 L 50.0439 45.976 C 50.0439 44.4087 50.4424 44.1775 51.7759 44.1775 C 53.109 44.1775 53.5066 44.4087 53.5066 45.976 L 53.5066 51.7317 C 53.5066 53.1176 53.2834 53.5303 51.7759 53.5303 L 46.8063 53.5303 L 46.8063 60.7246 L 51.7759 60.7246 C 53.2834 60.7246 53.5066 61.1371 53.5066 62.5229 L 53.5066 70.0773 C 53.5066 71.6446 53.109 71.8758 51.7759 71.8758 C 50.4424 71.8758 50.0439 71.6446 50.0439 70.0773 L 50.0439 62.8829 L 39.6121 62.8829 L 39.6121 71.8758 C 39.6121 78.1469 42.439 79.0702 51.7759 79.0702 C 61.1126 79.0702 63.9384 78.1469 63.9384 71.8758 L 63.9384 63.1138 C 63.9384 58.9972 62.5349 57.5699 58.1058 57.1273 Z" fill="#ffffff"/>				<path d="M 29.2831 57.1273 L 29.2831 56.9473 C 33.7119 56.5047 34.9356 55.0781 34.9356 50.9609 L 34.9356 44.537 C 34.9356 38.2666 32.2885 37.3427 22.9519 37.3427 L 10.6294 37.3427 L 10.6294 78.7106 L 22.9519 78.7106 C 32.2885 78.7106 35.1154 77.7867 35.1154 71.5165 L 35.1154 63.1138 C 35.1154 58.9972 33.7119 57.5699 29.2831 57.1273 ZM 24.8636 69.7179 C 24.8636 71.2852 24.4651 71.5165 23.1317 71.5165 L 20.7014 71.5165 L 20.7014 60.3653 L 23.1317 60.3653 C 24.6396 60.3653 24.8636 60.7776 24.8636 62.1636 L 24.8636 69.7179 ZM 24.8636 52.2712 C 24.8636 53.6572 24.6396 54.0699 23.1317 54.0699 L 20.7014 54.0699 L 20.7014 44.537 L 23.1317 44.537 C 24.4651 44.537 24.8636 44.7682 24.8636 46.3361 L 24.8636 52.2712 Z" fill="#ffffff"/>			</g>		</g>	</g></svg>